
<svg width="512" height="512" viewBox="0 0 512 512" fill="none" xmlns="http://www.w3.org/2000/svg">
  <defs>
    <linearGradient id="grad1" x1="0%" y1="0%" x2="100%" y2="100%">
      <stop offset="0%" style="stop-color:#4F46E5;stop-opacity:1" />
      <stop offset="100%" style="stop-color:#FF6647;stop-opacity:1" />
    </linearGradient>
  </defs>
  <rect width="512" height="512" fill="black"/>
  <path transform="translate(56, 56) scale(0.78)" fill="url(#grad1)" d="M474.655,74.503C449.169,45.72,413.943,29.87,375.467,29.87c-30.225,0-58.5,12.299-81.767,35.566
    c-15.522,15.523-28.33,35.26-37.699,57.931c-9.371-22.671-22.177-42.407-37.699-57.931c-23.267-23.267-51.542-35.566-81.767-35.566
    c-38.477,0-73.702,15.851-99.188,44.634C13.612,101.305,0,137.911,0,174.936c0,44.458,13.452,88.335,39.981,130.418
    c21.009,33.324,50.227,65.585,86.845,95.889c62.046,51.348,123.114,78.995,125.683,80.146c2.203,0.988,4.779,0.988,6.981,0
    c2.57-1.151,63.637-28.798,125.683-80.146c36.618-30.304,65.836-62.565,86.845-95.889C498.548,263.271,512,219.394,512,174.936
    C512,137.911,498.388,101.305,474.655,74.503z"/>
</svg>
