<svg id="visual" viewBox="0 0 900 600" width="900" height="600" xmlns="http://www.w3.org/2000/svg" xmlns:xlink="http://www.w3.org/1999/xlink" version="1.1"><rect x="0" y="0" width="900" height="600" fill="#78c4ff"></rect><defs><linearGradient id="grad1_0" x1="33.3%" y1="0%" x2="100%" y2="100%"><stop offset="20%" stop-color="#78c4ff" stop-opacity="1"></stop><stop offset="80%" stop-color="#78c4ff" stop-opacity="1"></stop></linearGradient></defs><defs><linearGradient id="grad2_0" x1="0%" y1="0%" x2="66.7%" y2="100%"><stop offset="20%" stop-color="#78c4ff" stop-opacity="1"></stop><stop offset="80%" stop-color="#78c4ff" stop-opacity="1"></stop></linearGradient></defs><g transform="translate(900, 0)"><path d="M0 432.7C-46.1 370.8 -92.1 308.9 -162 280.6C-231.9 252.3 -325.6 257.5 -374.7 216.3C-423.8 175.2 -428.2 87.6 -432.7 0L0 0Z" fill="#8dff5b"></path></g><g transform="translate(0, 600)"><path d="M0 -432.7C48.2 -374.5 96.4 -316.3 166 -287.5C235.6 -258.7 326.7 -259.4 374.7 -216.3C422.7 -173.3 427.7 -86.7 432.7 0L0 0Z" fill="#8dff5b"></path></g></svg>